<?xml version="1.0" encoding="utf-8"?>
<!-- Generator: Adobe Illustrator 16.0.0, SVG Export Plug-In . SVG Version: 6.00 Build 0)  -->
<!DOCTYPE svg PUBLIC "-//W3C//DTD SVG 1.1//EN" "http://www.w3.org/Graphics/SVG/1.1/DTD/svg11.dtd">
<svg version="1.1" id="Layer_1" xmlns="http://www.w3.org/2000/svg" xmlns:xlink="http://www.w3.org/1999/xlink" x="0px" y="0px"
	 width="124.86px" height="101.285px" viewBox="0 0 124.86 101.285" enable-background="new 0 0 124.86 101.285"
	 xml:space="preserve">
<g>
	<circle fill="#FFFFFF" cx="55.619" cy="59.334" r="1.753"/>
	<circle fill="#FFFFFF" cx="46.865" cy="66.861" r="1.753"/>
	<circle fill="#FFFFFF" cx="50.998" cy="75.734" r="1.753"/>
	<circle fill="#FFFFFF" cx="46.016" cy="89.941" r="1.753"/>
	<circle fill="#FFFFFF" cx="52.182" cy="89.941" r="1.753"/>
	<circle fill="#FFFFFF" cx="41.396" cy="80.52" r="1.753"/>
	<circle fill="#FFFFFF" cx="41.396" cy="71.268" r="1.753"/>
	<circle fill="#FFFFFF" cx="41.396" cy="60.262" r="1.753"/>
	<circle fill="#FFFFFF" cx="45.911" cy="49.522" r="1.753"/>
	<path fill="none" stroke="#FFFFFF" stroke-width="2" stroke-linecap="round" stroke-miterlimit="10" d="M61.241,66.622v20.72
		c0,4.182-3.402,7.584-7.585,7.584h-4.737c-4.155,0-7.544-3.361-7.584-7.51v-1.193l-1.065-0.275
		c-2.34-0.602-3.973-2.703-3.973-5.109c0-1.211,0.404-2.352,1.168-3.303l1.094-1.361l-1.557-0.793
		c-1.668-0.85-2.705-2.531-2.705-4.387c0-1.773,1.013-3.447,2.643-4.371l1.572-0.891l-1.237-1.316
		c-1.016-1.079-1.576-2.484-1.576-3.955c0-2.672,1.817-4.981,4.423-5.613l1.896-0.461l-1.023-1.664
		c-0.498-0.807-0.761-1.73-0.761-2.666c0-2.623,2.048-4.861,4.663-5.094l1.106-0.098l0.171-1.103
		c0.563-3.664,3.781-6.426,7.482-6.426c1.046,0,2.043,0.212,2.95,0.596"/>
	<path fill="none" stroke="#FFFFFF" stroke-width="2" stroke-linecap="round" stroke-linejoin="round" d="M45.35,45.103h4.803
		c2.725,0,4.936,2.208,4.936,4.935"/>
	<path fill="none" stroke="#FFFFFF" stroke-width="2" stroke-linecap="round" stroke-linejoin="round" d="M45.35,54.992
		c-2.725,0-4.936-2.207-4.936-4.936l0,0c0-2.728,2.211-4.936,4.936-4.936h1.035"/>
	<path fill="none" stroke="#FFFFFF" stroke-width="2" stroke-linecap="round" stroke-linejoin="round" d="M41.388,66.064h0.091
		c-3.092,0-5.601-2.508-5.601-5.604l0,0c0-3.092,2.509-5.603,5.601-5.603h2.403"/>
	<path fill="none" stroke="#FFFFFF" stroke-width="2" stroke-linecap="round" stroke-linejoin="round" d="M49.985,85.94h-8.403
		c-2.818,0-5.103-2.286-5.103-5.103l0,0c0-2.818,2.284-5.104,5.103-5.104"/>
	<path fill="none" stroke="#FFFFFF" stroke-width="2" stroke-linecap="round" stroke-linejoin="round" d="M44.142,75.734H39.22
		c-2.619,0-4.743-2.122-4.743-4.74l0,0c0-2.621,2.354-4.863,4.973-4.863h2.433"/>
	<path fill="none" stroke="#FFFFFF" stroke-width="2" stroke-linecap="round" stroke-linejoin="round" d="M76.19,66.18
		c-1.325,0-2.402,1.075-2.402,2.402v2.467"/>
	<g>
		<path fill="none" stroke="#FFFFFF" stroke-width="2" stroke-linecap="round" stroke-linejoin="round" d="M80.59,80.869H70.188
			c-1.768,0-3.201-1.433-3.201-3.201V67.73c0-1.768,1.434-3.201,3.201-3.201"/>
		<path fill="none" stroke="#FFFFFF" stroke-width="2" stroke-linecap="round" stroke-linejoin="round" d="M66.987,76.234v10.604
			c0,1.715,1.387,3.104,3.1,3.104l0,0"/>
		<path fill="none" stroke="#FFFFFF" stroke-width="2" stroke-linecap="round" stroke-linejoin="round" d="M76.458,49.522h-1.734
			c-1.327,0-2.402,1.075-2.402,2.401v6.404c0,1.324,1.075,2.4,2.402,2.4h6.534"/>
		<path fill="none" stroke="#FFFFFF" stroke-width="2" stroke-linecap="round" stroke-linejoin="round" d="M71.907,55.178h-2.471
			c-1.324,0-2.402,1.076-2.402,2.402"/>
		<path fill="none" stroke="#FFFFFF" stroke-width="2" stroke-linecap="round" stroke-linejoin="round" d="M66.984,68.064v0.799
			c0,1.328,1.075,2.404,2.403,2.404h11.87"/>
		<path fill="none" stroke="#FFFFFF" stroke-width="2" stroke-linecap="round" stroke-linejoin="round" d="M74.055,75.65
			c-1.326,0-2.401,1.076-2.401,2.402v2.467"/>
		<path fill="none" stroke="#FFFFFF" stroke-width="2" stroke-linecap="round" stroke-linejoin="round" d="M76.989,93.614
			c0-1.678-1.075-2.886-2.402-2.886"/>
	</g>
	<path fill="none" stroke="#FFFFFF" stroke-width="2" stroke-linecap="round" stroke-miterlimit="10" d="M61.221,66.622v20.72
		c0,4.182,3.402,7.584,7.585,7.584h4.737c4.155,0,7.544-3.361,7.584-7.51l-0.001-1.193l1.066-0.275
		c2.34-0.602,3.973-2.703,3.973-5.109c0-1.211-0.404-2.352-1.169-3.303l-1.093-1.361l1.557-0.793
		c1.668-0.85,2.704-2.531,2.704-4.387c0-1.773-1.012-3.447-2.642-4.371l-1.572-0.891l1.237-1.316
		c1.016-1.079,1.576-2.484,1.576-3.955c0-2.672-1.817-4.981-4.423-5.613l-1.896-0.461l1.023-1.664
		c0.497-0.807,0.761-1.73,0.761-2.666c0-2.623-2.048-4.861-4.664-5.094l-1.105-0.098l-0.171-1.103
		c-0.563-3.664-3.782-6.426-7.482-6.426c-1.046,0-2.043,0.212-2.95,0.596"/>
	<path fill="none" stroke="#FFFFFF" stroke-width="2" stroke-linecap="round" stroke-linejoin="round" d="M77.112,45.103h-4.803
		c-2.725,0-4.936,2.208-4.936,4.935"/>
	<path fill="none" stroke="#FFFFFF" stroke-width="2" stroke-linecap="round" stroke-linejoin="round" d="M77.112,54.992
		c2.725,0,4.936-2.207,4.936-4.936l0,0c0-2.728-2.211-4.936-4.936-4.936h-1.035"/>
	<path fill="none" stroke="#FFFFFF" stroke-width="2" stroke-linecap="round" stroke-linejoin="round" d="M81.073,66.064h-0.091
		c3.093,0,5.602-2.508,5.602-5.604l0,0c0-3.092-2.509-5.603-5.602-5.603H78.58"/>
	<path fill="none" stroke="#FFFFFF" stroke-width="2" stroke-linecap="round" stroke-linejoin="round" d="M72.477,85.94h8.403
		c2.818,0,5.103-2.286,5.103-5.103l0,0c0-2.818-2.284-5.104-5.103-5.104"/>
	<path fill="none" stroke="#FFFFFF" stroke-width="2" stroke-linecap="round" stroke-linejoin="round" d="M78.32,75.734h4.922
		c2.619,0,4.743-2.122,4.743-4.74l0,0c0-2.621-2.354-4.863-4.973-4.863H80.58"/>
	<polyline fill="none" stroke="#FFFFFF" stroke-width="2" stroke-linecap="round" stroke-linejoin="round" points="51.336,64.529 
		55.619,64.529 55.619,89.941 51.793,89.941 	"/>
	
		<line fill="none" stroke="#FFFFFF" stroke-width="2" stroke-linecap="round" stroke-linejoin="round" x1="46.015" y1="89.941" x2="46.015" y2="93.933"/>
	
		<line fill="none" stroke="#FFFFFF" stroke-width="2" stroke-linecap="round" stroke-linejoin="round" x1="55.619" y1="80.52" x2="41.396" y2="80.52"/>
	
		<line fill="none" stroke="#FFFFFF" stroke-width="2" stroke-linecap="round" stroke-linejoin="round" x1="55.619" y1="71.268" x2="41.396" y2="71.268"/>
	
		<line fill="none" stroke="#FFFFFF" stroke-width="2" stroke-linecap="round" stroke-linejoin="round" x1="50.999" y1="80.52" x2="50.999" y2="76.234"/>
	
		<line fill="none" stroke="#FFFFFF" stroke-width="2" stroke-linecap="round" stroke-linejoin="round" x1="46.865" y1="71.268" x2="46.865" y2="67.707"/>
	<polyline fill="none" stroke="#FFFFFF" stroke-width="2" stroke-linecap="round" stroke-linejoin="round" points="46.196,49.522 
		50.332,49.522 50.332,60.461 41.396,60.461 	"/>
	<polyline fill="none" stroke="#FFFFFF" stroke-width="2" stroke-linecap="round" stroke-linejoin="round" points="50.747,55.178 
		55.619,55.178 55.619,58.38 	"/>
	
		<line fill="none" stroke="#FFFFFF" stroke-width="2" stroke-linecap="round" stroke-linejoin="round" x1="61.221" y1="60.729" x2="61.221" y2="40.339"/>
	<g>
		
			<line fill="none" stroke="#C3D839" stroke-width="2" stroke-linecap="round" stroke-miterlimit="10" x1="60.756" y1="1" x2="60.756" y2="13.813"/>
		
			<line fill="none" stroke="#C3D839" stroke-width="2" stroke-linecap="round" stroke-miterlimit="10" x1="29.811" y1="9.802" x2="36.215" y2="20.895"/>
		
			<line fill="none" stroke="#C3D839" stroke-width="2" stroke-linecap="round" stroke-miterlimit="10" x1="7.408" y1="32.896" x2="18.504" y2="39.303"/>
		
			<line fill="none" stroke="#C3D839" stroke-width="2" stroke-linecap="round" stroke-miterlimit="10" x1="123.858" y1="62.195" x2="111.045" y2="62.195"/>
		
			<line fill="none" stroke="#C3D839" stroke-width="2" stroke-linecap="round" stroke-miterlimit="10" x1="13.814" y1="62.195" x2="1.001" y2="62.195"/>
		
			<line fill="none" stroke="#C3D839" stroke-width="2" stroke-linecap="round" stroke-miterlimit="10" x1="115.058" y1="31.253" x2="103.958" y2="37.655"/>
		
			<line fill="none" stroke="#C3D839" stroke-width="2" stroke-linecap="round" stroke-miterlimit="10" x1="91.959" y1="8.852" x2="85.555" y2="19.944"/>
	</g>
	<g>
		
			<line fill="#586880" stroke="#FFFFFF" stroke-width="2" stroke-linecap="round" stroke-linejoin="round" x1="93.148" y1="90.342" x2="102.094" y2="99.285"/>
		<polygon fill="#586880" stroke="#FFFFFF" stroke-width="2" stroke-linecap="round" stroke-linejoin="round" points="76.789,73.98 
			103.092,85.11 92.534,89.729 87.919,100.285 		"/>
	</g>
</g>
</svg>
