<?xml version="1.0" encoding="utf-8"?>
<!-- Generator: Adobe Illustrator 16.0.0, SVG Export Plug-In . SVG Version: 6.00 Build 0)  -->
<!DOCTYPE svg PUBLIC "-//W3C//DTD SVG 1.1//EN" "http://www.w3.org/Graphics/SVG/1.1/DTD/svg11.dtd">
<svg version="1.1" id="Layer_1" xmlns="http://www.w3.org/2000/svg" xmlns:xlink="http://www.w3.org/1999/xlink" x="0px" y="0px"
	 width="43.25px" height="43.5px" viewBox="3.25 3 43.25 43.5" enable-background="new 3.25 3 43.25 43.5" xml:space="preserve">
<g>
	<path fill="none" stroke="#FFFFFF" stroke-width="3.3565" d="M25.001,8.806c-7.442,0-13.469,6.028-13.469,13.465
		c0,7.442,13.469,18.924,13.469,18.924s13.466-11.48,13.466-18.924C38.468,14.834,32.441,8.806,25.001,8.806z M25.001,28.957
		c-3.697,0-6.691-2.994-6.691-6.686s2.994-6.684,6.691-6.684c3.694,0,6.683,2.992,6.683,6.684
		C31.685,25.966,28.695,28.957,25.001,28.957z"/>
	<path fill="none" stroke="#FFFFFF" stroke-width="3.3565" stroke-miterlimit="10" d="M25.001,28.957
		c-3.697,0-6.691-2.994-6.691-6.686s2.994-6.684,6.691-6.684c3.694,0,6.683,2.992,6.683,6.684
		C31.685,25.966,28.695,28.957,25.001,28.957z"/>
</g>
</svg>
