<?xml version="1.0" encoding="utf-8"?>
<!-- Generator: Adobe Illustrator 16.0.0, SVG Export Plug-In . SVG Version: 6.00 Build 0)  -->
<!DOCTYPE svg PUBLIC "-//W3C//DTD SVG 1.1//EN" "http://www.w3.org/Graphics/SVG/1.1/DTD/svg11.dtd">
<svg version="1.1" xmlns="http://www.w3.org/2000/svg" xmlns:xlink="http://www.w3.org/1999/xlink" x="0px" y="0px"
	 width="109.322px" height="105.932px" viewBox="0 0 109.322 105.932" enable-background="new 0 0 109.322 105.932"
	 xml:space="preserve">
<g id="Layer_1" display="none">
	<g id="Layer_1_1_">
		
			<line display="inline" fill="none" stroke="#45A0A3" stroke-width="1.7761" stroke-miterlimit="10" x1="55.762" y1="19.71" x2="55.762" y2="23.569"/>
		
			<line display="inline" fill="none" stroke="#C3D939" stroke-width="1.7761" stroke-miterlimit="10" x1="46.443" y1="22.361" x2="48.372" y2="25.702"/>
		
			<line display="inline" fill="none" stroke="#E05C26" stroke-width="1.7761" stroke-miterlimit="10" x1="39.696" y1="29.316" x2="43.038" y2="31.246"/>
		
			<line display="inline" fill="none" stroke="#C3D939" stroke-width="1.7761" stroke-miterlimit="10" x1="74.767" y1="38.141" x2="70.909" y2="38.141"/>
		
			<line display="inline" fill="none" stroke="#E05C26" stroke-width="1.7761" stroke-miterlimit="10" x1="72.117" y1="28.821" x2="68.774" y2="30.75"/>
		
			<line display="inline" fill="none" stroke="#EFC96A" stroke-width="1.7761" stroke-miterlimit="10" x1="65.161" y1="22.075" x2="63.231" y2="25.416"/>
		<path display="inline" fill="none" stroke="#49505A" stroke-width="1.7761" stroke-miterlimit="10" d="M45.246,34.82
			c-5.949,2.862-10.057,8.947-10.057,15.99c0,0.271,0.009,0.536,0.021,0.803l-2.476,4.291l-3.257,5.642h4.12v7
			c0,2.641,2.139,4.783,4.78,4.783h7.574v9.164"/>
		<path display="inline" fill="none" stroke="#49505A" stroke-width="1.7761" stroke-miterlimit="10" d="M65.475,82.491V63.335
			c3.203-3.209,5.182-7.637,5.182-12.526c0-3.798-1.195-7.318-3.229-10.205"/>
		<path display="inline" fill="#EFC96A" stroke="#49505A" stroke-width="1.7761" stroke-miterlimit="10" d="M50.195,54.805
			c0.011,0,0.243-3.057-1.017-4.735c-4.322-5.563-4.593-10.857-4.593-11.231c0-6.333,5.129-11.462,11.461-11.462
			c6.333,0,11.463,5.129,11.463,11.462c0,0.375-0.274,5.671-4.595,11.231c-1.264,1.679-1.044,4.885-1.044,5.051"/>
		
			<path display="inline" fill="none" stroke="#49505A" stroke-width="1.7761" stroke-linecap="round" stroke-linejoin="bevel" stroke-miterlimit="10" d="
			M62.641,57.635c0-0.443-0.302-0.814-0.711-0.93c0.409-0.113,0.711-0.483,0.711-0.929c0-0.521-0.414-0.942-0.935-0.964H59.76
			h-7.423H50.39c-0.519,0.021-0.934,0.443-0.934,0.964c0,0.444,0.302,0.814,0.711,0.929c-0.409,0.114-0.711,0.485-0.711,0.93
			s0.302,0.813,0.711,0.928c-0.409,0.115-0.711,0.484-0.711,0.93c0,0.521,0.415,0.942,0.934,0.965v0.085
			c0,0.713,0.582,1.291,1.298,1.291h1.945h4.829h1.947c0.717,0,1.297-0.578,1.297-1.291v-0.085c0.521-0.021,0.935-0.442,0.935-0.965
			c0-0.444-0.302-0.813-0.711-0.93C62.34,58.449,62.641,58.079,62.641,57.635z"/>
		
			<line display="inline" fill="none" stroke="#49505A" stroke-width="1.7761" stroke-miterlimit="10" x1="50.158" y1="57.75" x2="59.483" y2="57.75"/>
		<line display="inline" fill="none" stroke="#49505A" stroke-width="1.7761" x1="53.161" y1="55.073" x2="51.009" y2="41.801"/>
		<line display="inline" fill="none" stroke="#49505A" stroke-width="1.7761" x1="58.939" y1="55.073" x2="61.09" y2="41.801"/>
		<polyline display="inline" fill="none" stroke="#49505A" stroke-width="1.7761" points="51.147,42.216 52.138,43.4 53.128,42.216 
			54.123,43.4 55.116,42.216 56.111,43.4 57.105,42.216 58.1,43.4 59.095,42.216 60.093,43.4 61.091,42.216 		"/>
		
			<circle display="inline" fill="none" stroke="#E7E7E7" stroke-width="2" stroke-miterlimit="10" cx="54.82" cy="53.608" r="48.871"/>
	</g>
	<g id="Layer_2" display="inline">
		<path fill="#49505A" d="M49.519,31.899c8.833,0,16.126,6.562,17.292,15.067c1.024-0.288,2.104-0.452,3.217-0.452
			c6.574,0,11.897,5.33,11.897,11.9c0,0.477-0.034,0.944-0.088,1.407c2.933,0.09,5.279,2.487,5.279,5.439
			c0,3.01-2.438,5.449-5.445,5.449c-0.153,0-0.309-0.011-0.461-0.023c-0.002,0.006-0.006,0.015-0.008,0.023H71.6H56.458h-23.18
			c-5.884,0-10.656-4.773-10.656-10.656c0-5.473,4.127-9.977,9.438-10.582c0-0.039,0-0.077,0-0.119
			C32.06,39.718,39.873,31.899,49.519,31.899 M49.519,29.915c-10.203,0-18.596,7.897-19.383,17.898
			c-5.521,1.405-9.497,6.396-9.497,12.241c0,6.969,5.67,12.641,12.639,12.641h23.179H71.6h9.604H82.7l0.021-0.074
			c3.602-0.512,6.381-3.616,6.381-7.358c0-3.338-2.162-6.145-5.193-7.088C83.78,50.629,77.602,44.53,70.028,44.53
			c-0.547,0-1.1,0.035-1.65,0.104C66.245,36.111,58.477,29.915,49.519,29.915L49.519,29.915z"/>
		<rect x="29.021" y="55.62" fill="#45A0A3" width="8.161" height="7.981"/>
		<rect x="42.162" y="55.62" fill="#E05C26" width="8.161" height="7.981"/>
		<rect x="55.303" y="55.62" fill="#EFC96A" width="8.159" height="7.981"/>
		<rect x="68.444" y="55.62" fill="#49505A" width="8.162" height="7.981"/>
		<circle fill="none" stroke="#E7E7E7" stroke-width="2" stroke-miterlimit="10" cx="54.87" cy="54.061" r="48.87"/>
	</g>
</g>
<g id="Layer_3">
	<g id="Layer_3_1_">
		
			<ellipse fill="#FFFFFF" stroke="#E05C26" stroke-width="2" stroke-miterlimit="10" cx="54.964" cy="53.588" rx="48.854" ry="48.759"/>
	</g>
</g>
<g id="Layer_2_1_">
	
		<circle display="none" fill="none" stroke="#E6E7E8" stroke-width="1.8" stroke-miterlimit="10" cx="55.058" cy="53.588" r="48.759"/>
	<g>
		<path fill="#FFFFFF" d="M24.677,44.295c-2.472,2.472-3.827,5.747-3.827,9.231c0,3.488,1.366,6.771,3.847,9.24
			c2.468,2.459,5.739,3.812,9.212,3.812c3.545,0,6.761-1.423,9.114-3.725c-0.985,0-2.122,0-3.76,0
			c-1.285-0.001-2.78-1.014-3.172-2.295c-1.322-4.429-1.322-9.148,0-13.577c0.392-1.285,1.884-2.295,3.172-2.295
			c1.898,0,3.128,0,4.223,0c-0.127-0.139-0.244-0.282-0.376-0.416c-2.469-2.459-5.736-3.81-9.206-3.809
			C30.425,40.466,27.145,41.825,24.677,44.295z M34.941,53.769c0,2.551-2.066,4.616-4.615,4.616c-2.548,0-4.615-2.065-4.615-4.616
			c0-2.548,2.066-4.614,4.615-4.614C32.875,49.155,34.941,51.22,34.941,53.769z"/>
		<path fill="none" stroke="#484F59" stroke-width="1.8" d="M43.111,44.272c2.484,2.476,3.85,5.757,3.85,9.249
			c0.004,7.2-5.85,13.058-13.051,13.058c-3.473,0-6.744-1.353-9.212-3.812c-2.48-2.47-3.847-5.752-3.847-9.24
			c0-3.484,1.355-6.759,3.827-9.231c2.467-2.47,5.748-3.829,9.228-3.833C37.375,40.462,40.642,41.813,43.111,44.272z"/>
		<path fill="#45A0A3" stroke="#484F59" stroke-width="1.8" d="M36.092,46.982c-1.322,4.428-1.322,9.148,0,13.577
			c0.392,1.281,1.887,2.294,3.172,2.295c1.638,0,2.774,0,3.76,0c1.211-1.182,2.194-2.597,2.873-4.175H40.05h5.846
			c0.685-1.582,1.065-3.325,1.064-5.158c0-1.62-0.307-3.19-0.87-4.661h-6.04h6.04c-0.586-1.529-1.463-2.939-2.604-4.172
			c-1.095,0-2.325,0-4.223,0C37.975,44.687,36.484,45.697,36.092,46.982z"/>
		<circle fill="#45A0A3" stroke="#484F59" stroke-width="1.8" cx="30.326" cy="53.769" r="4.615"/>
	</g>
	<g>
		<path fill="#FFFFFF" d="M85.439,62.745c2.472-2.471,3.827-5.748,3.827-9.229c0-3.489-1.366-6.772-3.847-9.241
			c-2.469-2.459-5.74-3.813-9.213-3.813c-3.544,0-6.761,1.424-9.113,3.725c0.985,0,2.122,0,3.759,0
			c1.286,0.002,2.78,1.013,3.172,2.297c1.323,4.427,1.323,9.146,0,13.575c-0.392,1.284-1.884,2.295-3.172,2.296
			c-1.897,0-3.129,0-4.222,0c0.126,0.138,0.242,0.281,0.375,0.415c2.469,2.457,5.734,3.81,9.205,3.81
			C79.69,66.576,82.97,65.215,85.439,62.745z M75.176,53.272c0-2.55,2.066-4.616,4.614-4.616c2.549,0,4.614,2.066,4.614,4.616
			c0,2.549-2.065,4.615-4.614,4.615C77.242,57.887,75.176,55.821,75.176,53.272z"/>
		<path fill="none" stroke="#484F59" stroke-width="1.8" d="M67.006,62.77c-2.484-2.478-3.85-5.758-3.85-9.25
			c-0.005-7.201,5.85-13.058,13.051-13.058c3.473,0,6.744,1.353,9.213,3.813c2.48,2.469,3.847,5.752,3.847,9.241
			c0,3.481-1.355,6.759-3.827,9.229c-2.469,2.47-5.749,3.831-9.229,3.834C72.74,66.579,69.474,65.227,67.006,62.77z"/>
		<path fill="#EFC968" stroke="#484F59" stroke-width="1.8" d="M74.024,60.059c1.323-4.429,1.323-9.148,0-13.575
			c-0.392-1.284-1.886-2.294-3.172-2.297c-1.637,0-2.773,0-3.759,0c-1.211,1.184-2.194,2.598-2.873,4.175h5.846H64.22
			c-0.685,1.583-1.065,3.327-1.064,5.158c0,1.62,0.307,3.191,0.869,4.662h6.041h-6.041c0.587,1.528,1.464,2.938,2.605,4.173
			c1.093,0,2.324,0,4.222,0C72.14,62.354,73.633,61.343,74.024,60.059z"/>
		<circle fill="#EFC968" stroke="#484F59" stroke-width="1.8" cx="79.79" cy="53.272" r="4.614"/>
	</g>
	<g>
		<path fill="#FFFFFF" d="M46.125,85.389c2.473,2.473,5.748,3.828,9.233,3.828c3.486,0,6.769-1.366,9.239-3.848
			c2.459-2.468,3.812-5.738,3.812-9.213c0-3.544-1.424-6.759-3.725-9.113c0,0.985,0,2.122,0,3.761
			c-0.001,1.284-1.014,2.778-2.296,3.172c-4.428,1.321-9.148,1.321-13.576,0c-1.285-0.394-2.295-1.885-2.295-3.172
			c0-1.898,0-3.129,0-4.224c-0.139,0.127-0.281,0.243-0.415,0.377c-2.459,2.468-3.81,5.735-3.809,9.204
			C42.297,79.642,43.656,82.922,46.125,85.389z M55.6,75.126c2.551,0,4.615,2.065,4.615,4.614c0,2.548-2.064,4.615-4.615,4.615
			c-2.549,0-4.616-2.067-4.616-4.615C50.985,77.192,53.051,75.126,55.6,75.126z"/>
		<path fill="none" stroke="#484F59" stroke-width="1.8" d="M46.103,66.957c2.476-2.485,5.757-3.85,9.249-3.85
			c7.199-0.005,13.059,5.848,13.058,13.049c0,3.475-1.353,6.745-3.812,9.213c-2.471,2.481-5.753,3.848-9.239,3.848
			c-3.485,0-6.76-1.355-9.233-3.828c-2.47-2.467-3.829-5.747-3.832-9.228C42.293,72.693,43.643,69.425,46.103,66.957z"/>
		<path fill="#6D6E70" stroke="#484F59" stroke-width="1.8" d="M48.813,73.976c4.428,1.321,9.148,1.321,13.576,0
			c1.282-0.394,2.295-1.888,2.296-3.172c0-1.639,0-2.775,0-3.761c-1.183-1.21-2.597-2.192-4.175-2.873v5.847V64.17
			c-1.583-0.684-3.326-1.065-5.158-1.063c-1.62,0-3.19,0.305-4.661,0.869v6.04v-6.04c-1.529,0.586-2.939,1.463-4.172,2.604
			c0,1.095,0,2.325,0,4.224C46.518,72.091,47.528,73.582,48.813,73.976z"/>
		<circle fill="#6D6E70" stroke="#484F59" stroke-width="1.8" cx="55.6" cy="79.741" r="4.615"/>
	</g>
	<g>
		<path fill="#FFFFFF" d="M64.578,21.653c-2.473-2.472-5.749-3.827-9.232-3.827c-3.488,0-6.77,1.366-9.24,3.847
			c-2.459,2.469-3.812,5.739-3.812,9.212c0,3.545,1.423,6.76,3.724,9.114c0-0.985,0-2.122,0-3.76
			c0.001-1.285,1.014-2.779,2.295-3.172c4.429-1.322,9.147-1.322,13.576,0c1.285,0.393,2.295,1.884,2.295,3.172
			c0,1.898,0,3.129,0,4.223c0.14-0.126,0.282-0.244,0.415-0.376c2.46-2.468,3.811-5.736,3.81-9.206
			C68.406,27.4,67.047,24.12,64.578,21.653z M55.102,31.916c-2.551,0-4.616-2.066-4.616-4.614c0-2.549,2.065-4.615,4.616-4.615
			c2.549,0,4.615,2.066,4.615,4.615C59.718,29.85,57.651,31.916,55.102,31.916z"/>
		<path fill="none" stroke="#484F59" stroke-width="1.8" d="M64.599,40.086c-2.475,2.484-5.758,3.85-9.249,3.85
			c-7.2,0.004-13.057-5.849-13.057-13.051c0-3.473,1.353-6.744,3.812-9.212c2.47-2.48,5.752-3.847,9.24-3.847
			c3.483,0,6.76,1.355,9.232,3.827c2.469,2.467,3.828,5.748,3.831,9.228C68.41,34.35,67.059,37.617,64.599,40.086z"/>
		<path fill="#E15B27" stroke="#484F59" stroke-width="1.8" d="M61.889,33.067c-4.429-1.322-9.147-1.322-13.576,0
			c-1.281,0.393-2.294,1.887-2.295,3.172c0,1.638,0,2.775,0,3.76c1.183,1.211,2.597,2.194,4.175,2.874v-5.847v5.847
			c1.583,0.684,3.325,1.065,5.157,1.063c1.621,0,3.19-0.307,4.662-0.87v-6.04v6.04c1.528-0.586,2.939-1.463,4.172-2.604
			c0-1.094,0-2.325,0-4.223C64.184,34.95,63.175,33.459,61.889,33.067z"/>
		<circle fill="#E15B27" stroke="#484F59" stroke-width="1.8" cx="55.102" cy="27.302" r="4.615"/>
	</g>
	<rect x="46.018" y="40.466" fill="#FFFFFF" stroke="#484F59" stroke-width="1.8" width="18.167" height="24.713"/>
	<line fill="none" stroke="#484F59" stroke-width="1.8" x1="51.158" y1="49.308" x2="59.718" y2="49.308"/>
	<line fill="none" stroke="#484F59" stroke-width="1.8" x1="51.158" y1="53.588" x2="59.718" y2="53.588"/>
	<line fill="none" stroke="#484F59" stroke-width="1.8" x1="51.158" y1="57.867" x2="59.718" y2="57.867"/>
</g>
</svg>
