<?xml version="1.0" encoding="utf-8"?>
<!-- Generator: Adobe Illustrator 16.0.0, SVG Export Plug-In . SVG Version: 6.00 Build 0)  -->
<!DOCTYPE svg PUBLIC "-//W3C//DTD SVG 1.1//EN" "http://www.w3.org/Graphics/SVG/1.1/DTD/svg11.dtd">
<svg version="1.1" xmlns="http://www.w3.org/2000/svg" xmlns:xlink="http://www.w3.org/1999/xlink" x="0px" y="0px"
	 width="109.322px" height="105.932px" viewBox="0 0 109.322 105.932" enable-background="new 0 0 109.322 105.932"
	 xml:space="preserve">
<g id="Layer_1" display="none">
	
		<line display="inline" fill="none" stroke="#45A0A3" stroke-width="1.7761" stroke-miterlimit="10" x1="55.762" y1="19.71" x2="55.762" y2="23.569"/>
	
		<line display="inline" fill="none" stroke="#C3D939" stroke-width="1.7761" stroke-miterlimit="10" x1="46.443" y1="22.361" x2="48.372" y2="25.702"/>
	
		<line display="inline" fill="none" stroke="#E05C26" stroke-width="1.7761" stroke-miterlimit="10" x1="39.696" y1="29.316" x2="43.038" y2="31.246"/>
	
		<line display="inline" fill="none" stroke="#C3D939" stroke-width="1.7761" stroke-miterlimit="10" x1="74.767" y1="38.141" x2="70.909" y2="38.141"/>
	
		<line display="inline" fill="none" stroke="#E05C26" stroke-width="1.7761" stroke-miterlimit="10" x1="72.117" y1="28.821" x2="68.774" y2="30.75"/>
	
		<line display="inline" fill="none" stroke="#EFC96A" stroke-width="1.7761" stroke-miterlimit="10" x1="65.161" y1="22.075" x2="63.231" y2="25.416"/>
	<path display="inline" fill="none" stroke="#49505A" stroke-width="1.7761" stroke-miterlimit="10" d="M45.246,34.82
		c-5.949,2.862-10.057,8.947-10.057,15.99c0,0.27,0.009,0.536,0.021,0.803l-2.476,4.291l-3.257,5.641h4.12v7
		c0,2.641,2.139,4.783,4.781,4.783h7.574v9.164"/>
	<path display="inline" fill="none" stroke="#49505A" stroke-width="1.7761" stroke-miterlimit="10" d="M65.475,82.491V63.335
		c3.203-3.209,5.182-7.637,5.182-12.526c0-3.798-1.195-7.319-3.229-10.205"/>
	<path display="inline" fill="#EFC96A" stroke="#49505A" stroke-width="1.7761" stroke-miterlimit="10" d="M50.195,54.805
		c0.011,0,0.243-3.057-1.017-4.735c-4.322-5.564-4.592-10.858-4.592-11.232c0-6.333,5.129-11.462,11.461-11.462
		c6.333,0,11.463,5.129,11.463,11.462c0,0.375-0.275,5.671-4.595,11.232c-1.264,1.678-1.044,4.884-1.044,5.05"/>
	
		<path display="inline" fill="none" stroke="#49505A" stroke-width="1.7761" stroke-linecap="round" stroke-linejoin="bevel" stroke-miterlimit="10" d="
		M62.641,57.635c0-0.443-0.301-0.814-0.711-0.93c0.41-0.113,0.711-0.483,0.711-0.928c0-0.521-0.414-0.943-0.934-0.964H59.76h-7.423
		h-1.947c-0.518,0.021-0.933,0.443-0.933,0.964c0,0.444,0.302,0.814,0.711,0.928c-0.409,0.115-0.711,0.486-0.711,0.93
		s0.302,0.813,0.711,0.928c-0.409,0.115-0.711,0.484-0.711,0.929c0,0.522,0.415,0.943,0.933,0.965v0.085
		c0,0.713,0.582,1.291,1.298,1.291h1.946h4.829h1.947c0.717,0,1.297-0.578,1.297-1.291v-0.085c0.52-0.021,0.934-0.442,0.934-0.965
		c0-0.444-0.301-0.813-0.711-0.929C62.34,58.449,62.641,58.079,62.641,57.635z"/>
	
		<line display="inline" fill="none" stroke="#49505A" stroke-width="1.7761" stroke-miterlimit="10" x1="50.158" y1="57.75" x2="59.483" y2="57.75"/>
	<line display="inline" fill="none" stroke="#49505A" stroke-width="1.7761" x1="53.161" y1="55.073" x2="51.009" y2="41.801"/>
	<line display="inline" fill="none" stroke="#49505A" stroke-width="1.7761" x1="58.939" y1="55.073" x2="61.09" y2="41.801"/>
	<polyline display="inline" fill="none" stroke="#49505A" stroke-width="1.7761" points="51.147,42.216 52.138,43.4 53.128,42.216 
		54.123,43.4 55.116,42.216 56.111,43.4 57.105,42.216 58.1,43.4 59.095,42.216 60.093,43.4 61.091,42.216 	"/>
	
		<circle display="inline" fill="none" stroke="#E7E7E7" stroke-width="2" stroke-miterlimit="10" cx="54.82" cy="53.608" r="48.871"/>
</g>
<g id="Layer_2" display="none">
	<path display="inline" fill="#49505A" d="M49.519,31.899c8.833,0,16.126,6.561,17.292,15.067c1.025-0.288,2.104-0.452,3.217-0.452
		c6.574,0,11.898,5.33,11.898,11.9c0,0.477-0.035,0.945-0.088,1.408c2.932,0.089,5.279,2.487,5.279,5.439
		c0,3.01-2.438,5.449-5.445,5.449c-0.154,0-0.309-0.011-0.461-0.023c-0.002,0.006-0.006,0.014-0.008,0.023H71.6H56.458H33.278
		c-5.884,0-10.656-4.773-10.656-10.656c0-5.473,4.127-9.977,9.437-10.582c0-0.039,0-0.077,0-0.119
		C32.06,39.718,39.873,31.899,49.519,31.899 M49.519,29.915c-10.203,0-18.595,7.898-19.383,17.899
		c-5.52,1.405-9.497,6.396-9.497,12.241c0,6.969,5.67,12.641,12.639,12.641h23.179H71.6h9.604H82.7l0.021-0.075
		c3.602-0.511,6.381-3.616,6.381-7.358c0-3.338-2.162-6.145-5.193-7.088C83.78,50.629,77.602,44.53,70.028,44.53
		c-0.547,0-1.1,0.035-1.65,0.104C66.245,36.111,58.477,29.915,49.519,29.915L49.519,29.915z"/>
	<rect x="29.021" y="55.62" display="inline" fill="#45A0A3" width="8.161" height="7.982"/>
	<rect x="42.162" y="55.62" display="inline" fill="#E05C26" width="8.161" height="7.982"/>
	<rect x="55.303" y="55.62" display="inline" fill="#EFC96A" width="8.16" height="7.982"/>
	<rect x="68.444" y="55.62" display="inline" fill="#49505A" width="8.162" height="7.982"/>
	
		<circle display="inline" fill="none" stroke="#E7E7E7" stroke-width="2" stroke-miterlimit="10" cx="54.87" cy="54.061" r="48.87"/>
</g>
<g id="Layer_3" display="none">
	<path display="inline" fill="none" stroke="#49505A" stroke-width="1.7239" d="M83.165,66.466V34.063
		c0-0.836-0.682-1.518-1.518-1.518h-52.36c-0.837,0-1.516,0.682-1.516,1.518v32.403H83.165z"/>
	
		<rect x="30.943" y="35.761" display="inline" fill="none" stroke="#49505A" stroke-width="1.7239" width="49.047" height="27.456"/>
	<path display="inline" fill="none" stroke="#49505A" stroke-width="1.7239" d="M27.727,66.433v4.673
		c0,0.896,0.918,1.895,1.815,1.895h52.232c0.896,0,1.434-0.921,1.434-1.816v-4.751H27.727z"/>
	<path display="inline" fill="none" stroke="#49505A" stroke-width="1.7239" d="M64.163,80.254
		c-0.494-0.215-1.088-0.483-1.438-0.674c-0.611-0.341-0.732-0.381-0.961-1.535c-0.25-1.262-0.045-3.783-0.139-4.945l-12.292-0.063
		c-0.097,1.16,0.111,3.746-0.14,5.008c-0.229,1.154-0.389,1.194-1.002,1.535c-0.346,0.189-0.93,0.454-1.42,0.666l0,0"/>
	<line display="inline" fill="none" stroke="#49505A" stroke-width="1.7239" x1="45.219" y1="80.252" x2="65.713" y2="80.252"/>
	<rect x="44.593" y="39.692" display="inline" fill="#45A0A3" width="8.16" height="7.983"/>
	<rect x="57.352" y="39.692" display="inline" fill="#E05C26" width="8.16" height="7.983"/>
	<rect x="44.593" y="51.303" display="inline" fill="#EFC96A" width="8.161" height="7.983"/>
	<rect x="57.352" y="51.303" display="inline" fill="#49505A" width="8.16" height="7.983"/>
	<line display="inline" fill="none" stroke="#49505A" stroke-width="1.7239" x1="52.215" y1="47.144" x2="49.431" y2="48.75"/>
	<line display="inline" fill="none" stroke="#49505A" stroke-width="1.7239" x1="65.268" y1="54.061" x2="69.846" y2="58.637"/>
	<polygon display="inline" fill="#FFFFFF" stroke="#49505A" stroke-width="1.7239" points="56.895,45.689 70.356,51.383 
		64.953,53.747 62.591,59.15 	"/>
	<line display="inline" fill="none" stroke="#49505A" stroke-width="1.7239" x1="55.053" y1="41.573" x2="55.053" y2="38.36"/>
	<line display="inline" fill="none" stroke="#49505A" stroke-width="1.7239" x1="52.026" y1="43.54" x2="49.242" y2="41.932"/>
	<line display="inline" fill="none" stroke="#49505A" stroke-width="1.7239" x1="55.43" y1="48.782" x2="55.43" y2="51.997"/>
	<line display="inline" fill="none" stroke="#49505A" stroke-width="1.7239" x1="58.268" y1="43.212" x2="61.053" y2="41.604"/>
	
		<circle display="inline" fill="none" stroke="#E7E7E7" stroke-width="2" stroke-miterlimit="10" cx="55.052" cy="54.061" r="48.871"/>
</g>
<g id="Layer_4" display="none">
	<line display="inline" fill="none" stroke="#49505A" stroke-width="2.0072" x1="54.813" y1="54.864" x2="54.813" y2="47.728"/>
	<polyline display="inline" fill="none" stroke="#49505A" stroke-width="2.0072" points="47.246,62.897 54.813,55.331 
		62.336,62.856 	"/>
	<path display="inline" fill="none" stroke="#49505A" stroke-width="2.0072" d="M45.898,81.031
		c-2.687,2.696-6.247,4.177-10.036,4.177c-7.813,0.006-14.169-6.347-14.169-14.162c0-3.768,1.468-7.317,4.137-9.996
		c2.68-2.691,6.242-4.174,10.026-4.174c3.78,0,7.335,1.471,10.018,4.154c2.68,2.676,4.154,6.236,4.158,10.012
		C50.033,74.807,48.567,78.352,45.898,81.031z"/>
	<path display="inline" fill="none" stroke="#49505A" stroke-width="1.4955" stroke-miterlimit="10" d="M45.874,61.03
		c-2.683-2.684-6.237-4.154-10.018-4.154c-3.784,0-7.347,1.482-10.026,4.174c-2.669,2.679-4.137,6.229-4.137,9.996
		c0,3.848,1.545,7.337,4.042,9.891c0-1.068,0-2.303,0-4.08c0.001-1.395,1.1-3.016,2.49-3.441c4.806-1.435,9.927-1.435,14.732,0
		c1.395,0.426,2.49,2.044,2.49,3.441c0,2.061,0,3.395,0,4.583c0.151-0.138,0.306-0.265,0.45-0.408
		c2.669-2.679,4.135-6.224,4.134-9.989C50.028,67.266,48.554,63.706,45.874,61.03z M35.593,72.167c-2.768,0-5.009-2.242-5.009-5.008
		s2.241-5.008,5.009-5.008c2.766,0,5.008,2.242,5.008,5.008S38.358,72.167,35.593,72.167z"/>
	<path display="inline" fill="#45A0A3" stroke="#49505A" stroke-width="2.0072" d="M42.958,73.415
		c-4.806-1.435-9.927-1.435-14.732,0c-1.391,0.426-2.489,2.047-2.49,3.441c0,1.777,0,3.012,0,4.08
		c1.283,1.314,2.817,2.381,4.53,3.117v-6.344v6.344c1.717,0.742,3.608,1.156,5.597,1.154c1.759,0,3.463-0.332,5.059-0.943v-6.555
		v6.555c1.658-0.637,3.189-1.588,4.527-2.825c0-1.188,0-2.522,0-4.583C45.448,75.458,44.353,73.84,42.958,73.415z"/>
	<circle display="inline" fill="#FFFFFF" stroke="#49505A" stroke-width="2.0072" cx="35.593" cy="67.159" r="5.008"/>
	<path display="inline" fill="none" stroke="#49505A" stroke-width="2.0072" d="M83.797,81.031
		c-2.688,2.696-6.248,4.177-10.037,4.177c-7.814,0.006-14.17-6.347-14.17-14.162c0-3.768,1.469-7.317,4.139-9.996
		c2.678-2.691,6.24-4.174,10.027-4.174c3.777,0,7.334,1.471,10.016,4.154c2.68,2.676,4.156,6.236,4.16,10.012
		C87.932,74.807,86.465,78.352,83.797,81.031z"/>
	<path display="inline" fill="none" stroke="#49505A" stroke-width="1.4955" stroke-miterlimit="10" d="M83.772,61.03
		c-2.682-2.684-6.238-4.154-10.016-4.154c-3.787,0-7.35,1.482-10.027,4.174c-2.67,2.679-4.139,6.229-4.139,9.996
		c0,3.848,1.547,7.337,4.043,9.891c0-1.068,0-2.303,0-4.08c0.002-1.395,1.1-3.016,2.492-3.441c4.805-1.435,9.924-1.435,14.73,0
		c1.395,0.426,2.49,2.044,2.492,3.441c0,2.061,0,3.395,0,4.583c0.148-0.138,0.305-0.265,0.449-0.408
		c2.668-2.679,4.135-6.224,4.135-9.989C87.928,67.266,86.452,63.706,83.772,61.03z M73.491,72.167c-2.766,0-5.008-2.242-5.008-5.008
		s2.242-5.008,5.008-5.008s5.01,2.242,5.01,5.008S76.256,72.167,73.491,72.167z"/>
	<path display="inline" fill="#E05C26" stroke="#49505A" stroke-width="2.0072" d="M80.856,73.415c-4.807-1.435-9.926-1.435-14.73,0
		c-1.393,0.426-2.49,2.047-2.492,3.441c0,1.777,0,3.012,0,4.08c1.283,1.314,2.818,2.381,4.529,3.117v-6.344v6.344
		c1.719,0.742,3.611,1.156,5.598,1.154c1.758,0,3.463-0.332,5.059-0.943v-6.555v6.555c1.658-0.637,3.189-1.588,4.529-2.825
		c0-1.188,0-2.522,0-4.583C83.346,75.458,82.25,73.84,80.856,73.415z"/>
	<circle display="inline" fill="#FFFFFF" stroke="#49505A" stroke-width="2.0072" cx="73.491" cy="67.159" r="5.008"/>
	<path display="inline" fill="none" stroke="#49505A" stroke-width="2.0072" d="M64.848,43.786
		c-2.686,2.695-6.248,4.178-10.035,4.178c-7.816,0.005-14.17-6.348-14.169-14.162c0-3.769,1.468-7.318,4.136-9.996
		c2.68-2.692,6.241-4.174,10.024-4.174c3.783-0.001,7.336,1.47,10.02,4.154c2.68,2.677,4.156,6.236,4.158,10.011
		C68.981,37.563,67.516,41.108,64.848,43.786z"/>
	<path display="inline" fill="none" stroke="#49505A" stroke-width="1.4955" stroke-miterlimit="10" d="M64.823,23.785
		c-2.684-2.684-6.236-4.155-10.02-4.154c-3.783,0-7.344,1.482-10.024,4.174c-2.668,2.678-4.136,6.228-4.136,9.996
		c-0.001,3.848,1.544,7.336,4.04,9.891c0-1.07,0-2.305,0-4.08c0.001-1.395,1.1-3.018,2.492-3.443c4.806-1.434,9.926-1.434,14.733,0
		c1.393,0.426,2.488,2.045,2.49,3.443c0,2.061,0,3.396,0,4.582c0.15-0.137,0.305-0.265,0.449-0.408
		c2.668-2.678,4.133-6.223,4.133-9.99C68.979,30.021,67.502,26.461,64.823,23.785z M54.542,34.921c-2.766,0-5.008-2.242-5.008-5.007
		c0-2.768,2.242-5.008,5.008-5.008c2.768,0,5.008,2.24,5.008,5.008C59.549,32.679,57.309,34.921,54.542,34.921z"/>
	<path display="inline" fill="#C3D939" stroke="#49505A" stroke-width="2.0072" d="M61.909,36.168
		c-4.807-1.434-9.927-1.434-14.733,0c-1.393,0.426-2.491,2.049-2.492,3.443c0,1.775,0,3.01,0,4.08
		c1.284,1.313,2.819,2.381,4.53,3.118v-6.347v6.347c1.718,0.742,3.609,1.154,5.599,1.153c1.758,0,3.461-0.332,5.057-0.943v-6.557
		v6.557c1.658-0.637,3.189-1.588,4.529-2.826c0-1.186,0-2.521,0-4.582C64.397,38.213,63.301,36.594,61.909,36.168z"/>
	<circle display="inline" fill="#FFFFFF" stroke="#49505A" stroke-width="2.0072" cx="54.542" cy="29.914" r="5.007"/>
	
		<circle display="inline" fill="none" stroke="#E7E7E7" stroke-width="2" stroke-miterlimit="10" cx="54.541" cy="54.061" r="48.871"/>
</g>
<g id="Layer_5">
	<path fill="none" stroke="#49505A" stroke-width="1.8296" stroke-miterlimit="10" d="M27.623,59.135V47.251
		c-1.986-1.99-3.214-4.736-3.214-7.77c0-6.074,4.926-11.001,11-11.001c6.076,0,11.003,4.927,11.003,11.001
		c0,0.167-0.007,0.333-0.015,0.498l1.536,2.661l2.021,3.501h-2.555v4.343c0,1.637-1.328,2.965-2.966,2.965h-4.698v5.686"/>
	<polygon fill="#C3D939" stroke="#49505A" stroke-width="1.8296" stroke-miterlimit="10" points="52.072,79.487 24.453,79.487 
		24.453,59.872 30.421,59.872 35.624,54.669 35.624,59.872 52.072,59.872 	"/>
	<path fill="none" stroke="#49505A" stroke-width="1.8296" stroke-miterlimit="10" d="M80.692,59.135V47.251
		c1.986-1.99,3.213-4.736,3.213-7.77c0-6.074-4.922-11.001-11-11.001c-6.076,0-11,4.927-11,11.001c0,0.167,0.004,0.333,0.012,0.498
		l-1.535,2.661l-2.023,3.501h2.559v4.343c0,1.637,1.326,2.965,2.965,2.965h4.697v5.686"/>
	<polygon fill="#E05C26" stroke="#49505A" stroke-width="1.8296" stroke-miterlimit="10" points="55.801,79.487 83.42,79.487 
		83.42,59.872 77.452,59.872 72.249,54.669 72.249,59.872 55.801,59.872 	"/>
	<circle fill="#FFFFFF" stroke="#49505A" stroke-width="1.8296" stroke-miterlimit="10" cx="69.611" cy="69.721" r="6.487"/>
	<circle fill="#49505A" cx="69.61" cy="69.721" r="3.182"/>
	<path fill="none" stroke="#49505A" stroke-width="1.8296" stroke-miterlimit="10" d="M29.093,65.829"/>
	
		<line fill="none" stroke="#49505A" stroke-width="1.8296" stroke-miterlimit="10" x1="46.406" y1="69.721" x2="29.657" y2="69.721"/>
	<polyline fill="none" stroke="#49505A" stroke-width="1.8296" stroke-miterlimit="10" points="43.825,66.368 47.759,69.842 
		43.825,72.645 	"/>
	<polyline fill="none" stroke="#49505A" stroke-width="1.8296" stroke-miterlimit="10" points="28.925,72.944 30.391,69.803 
		28.925,66.368 	"/>
	<polyline fill="none" stroke="#49505A" stroke-width="1.8296" stroke-miterlimit="10" points="32.289,72.944 33.754,69.803 
		32.289,66.368 	"/>
	<circle fill="none" stroke="#E7E7E7" stroke-width="2" stroke-miterlimit="10" cx="54.157" cy="54.625" r="48.871"/>
</g>
</svg>
