<?xml version="1.0" encoding="utf-8"?>
<!-- Generator: Adobe Illustrator 16.0.0, SVG Export Plug-In . SVG Version: 6.00 Build 0)  -->
<!DOCTYPE svg PUBLIC "-//W3C//DTD SVG 1.1//EN" "http://www.w3.org/Graphics/SVG/1.1/DTD/svg11.dtd">
<svg version="1.1" xmlns="http://www.w3.org/2000/svg" xmlns:xlink="http://www.w3.org/1999/xlink" x="0px" y="0px"
	 width="109.322px" height="105.932px" viewBox="0 0 109.322 105.932" enable-background="new 0 0 109.322 105.932"
	 xml:space="preserve">
<g id="Layer_1" display="none">
	
		<line display="inline" fill="none" stroke="#45A0A3" stroke-width="1.7761" stroke-miterlimit="10" x1="55.762" y1="19.71" x2="55.762" y2="23.569"/>
	
		<line display="inline" fill="none" stroke="#C3D939" stroke-width="1.7761" stroke-miterlimit="10" x1="46.443" y1="22.361" x2="48.372" y2="25.702"/>
	
		<line display="inline" fill="none" stroke="#E05C26" stroke-width="1.7761" stroke-miterlimit="10" x1="39.696" y1="29.316" x2="43.038" y2="31.246"/>
	
		<line display="inline" fill="none" stroke="#C3D939" stroke-width="1.7761" stroke-miterlimit="10" x1="74.767" y1="38.141" x2="70.909" y2="38.141"/>
	
		<line display="inline" fill="none" stroke="#E05C26" stroke-width="1.7761" stroke-miterlimit="10" x1="72.117" y1="28.821" x2="68.774" y2="30.75"/>
	
		<line display="inline" fill="none" stroke="#EFC96A" stroke-width="1.7761" stroke-miterlimit="10" x1="65.161" y1="22.075" x2="63.231" y2="25.416"/>
	<path display="inline" fill="none" stroke="#49505A" stroke-width="1.7761" stroke-miterlimit="10" d="M45.246,34.82
		c-5.949,2.862-10.057,8.947-10.057,15.99c0,0.27,0.009,0.536,0.021,0.803l-2.476,4.291l-3.257,5.641h4.12v7
		c0,2.641,2.139,4.783,4.781,4.783h7.574v9.164"/>
	<path display="inline" fill="none" stroke="#49505A" stroke-width="1.7761" stroke-miterlimit="10" d="M65.475,82.491V63.335
		c3.203-3.209,5.182-7.637,5.182-12.526c0-3.798-1.195-7.319-3.229-10.205"/>
	<path display="inline" fill="#EFC96A" stroke="#49505A" stroke-width="1.7761" stroke-miterlimit="10" d="M50.195,54.805
		c0.011,0,0.243-3.057-1.017-4.735c-4.322-5.564-4.592-10.858-4.592-11.232c0-6.333,5.129-11.462,11.461-11.462
		c6.333,0,11.463,5.129,11.463,11.462c0,0.375-0.275,5.671-4.595,11.232c-1.264,1.678-1.044,4.884-1.044,5.05"/>
	
		<path display="inline" fill="none" stroke="#49505A" stroke-width="1.7761" stroke-linecap="round" stroke-linejoin="bevel" stroke-miterlimit="10" d="
		M62.641,57.635c0-0.443-0.301-0.814-0.711-0.93c0.41-0.113,0.711-0.483,0.711-0.928c0-0.521-0.414-0.943-0.934-0.964H59.76h-7.423
		h-1.947c-0.518,0.021-0.933,0.443-0.933,0.964c0,0.444,0.302,0.814,0.711,0.928c-0.409,0.115-0.711,0.486-0.711,0.93
		s0.302,0.813,0.711,0.928c-0.409,0.115-0.711,0.484-0.711,0.929c0,0.522,0.415,0.943,0.933,0.965v0.085
		c0,0.713,0.582,1.291,1.298,1.291h1.946h4.829h1.947c0.717,0,1.297-0.578,1.297-1.291v-0.085c0.52-0.021,0.934-0.442,0.934-0.965
		c0-0.444-0.301-0.813-0.711-0.929C62.34,58.449,62.641,58.079,62.641,57.635z"/>
	
		<line display="inline" fill="none" stroke="#49505A" stroke-width="1.7761" stroke-miterlimit="10" x1="50.158" y1="57.75" x2="59.483" y2="57.75"/>
	<line display="inline" fill="none" stroke="#49505A" stroke-width="1.7761" x1="53.161" y1="55.073" x2="51.009" y2="41.801"/>
	<line display="inline" fill="none" stroke="#49505A" stroke-width="1.7761" x1="58.939" y1="55.073" x2="61.09" y2="41.801"/>
	<polyline display="inline" fill="none" stroke="#49505A" stroke-width="1.7761" points="51.147,42.216 52.138,43.4 53.128,42.216 
		54.123,43.4 55.116,42.216 56.111,43.4 57.105,42.216 58.1,43.4 59.095,42.216 60.093,43.4 61.091,42.216 	"/>
	
		<circle display="inline" fill="none" stroke="#E7E7E7" stroke-width="2" stroke-miterlimit="10" cx="54.82" cy="53.608" r="48.871"/>
</g>
<g id="Layer_2" display="none">
	<path display="inline" fill="#49505A" d="M49.519,31.899c8.833,0,16.126,6.561,17.292,15.067c1.025-0.288,2.104-0.452,3.217-0.452
		c6.574,0,11.898,5.33,11.898,11.9c0,0.477-0.035,0.945-0.088,1.408c2.932,0.089,5.279,2.487,5.279,5.439
		c0,3.01-2.438,5.449-5.445,5.449c-0.154,0-0.309-0.011-0.461-0.023c-0.002,0.006-0.006,0.014-0.008,0.023H71.6H56.458H33.278
		c-5.884,0-10.656-4.773-10.656-10.656c0-5.473,4.127-9.977,9.437-10.582c0-0.039,0-0.077,0-0.119
		C32.06,39.718,39.873,31.899,49.519,31.899 M49.519,29.915c-10.203,0-18.595,7.898-19.383,17.899
		c-5.52,1.405-9.497,6.396-9.497,12.241c0,6.969,5.67,12.641,12.639,12.641h23.179H71.6h9.604H82.7l0.021-0.075
		c3.602-0.511,6.381-3.616,6.381-7.358c0-3.338-2.162-6.145-5.193-7.088C83.78,50.629,77.602,44.53,70.028,44.53
		c-0.547,0-1.1,0.035-1.65,0.104C66.245,36.111,58.477,29.915,49.519,29.915L49.519,29.915z"/>
	<rect x="29.021" y="55.62" display="inline" fill="#45A0A3" width="8.161" height="7.982"/>
	<rect x="42.162" y="55.62" display="inline" fill="#E05C26" width="8.161" height="7.982"/>
	<rect x="55.303" y="55.62" display="inline" fill="#EFC96A" width="8.16" height="7.982"/>
	<rect x="68.444" y="55.62" display="inline" fill="#49505A" width="8.162" height="7.982"/>
	
		<circle display="inline" fill="none" stroke="#E7E7E7" stroke-width="2" stroke-miterlimit="10" cx="54.87" cy="54.061" r="48.87"/>
</g>
<g id="Layer_3">
	<path fill="none" stroke="#49505A" stroke-width="1.7239" d="M83.165,66.466V34.063c0-0.836-0.682-1.518-1.518-1.518h-52.36
		c-0.837,0-1.516,0.682-1.516,1.518v32.403H83.165z"/>
	<rect x="30.943" y="35.761" fill="none" stroke="#49505A" stroke-width="1.7239" width="49.047" height="27.456"/>
	<path fill="none" stroke="#49505A" stroke-width="1.7239" d="M27.727,66.433v4.673c0,0.896,0.918,1.895,1.815,1.895h52.232
		c0.896,0,1.434-0.921,1.434-1.816v-4.751H27.727z"/>
	<path fill="none" stroke="#49505A" stroke-width="1.7239" d="M64.163,80.254c-0.494-0.215-1.088-0.483-1.438-0.674
		c-0.611-0.341-0.732-0.381-0.961-1.535c-0.25-1.262-0.045-3.783-0.139-4.945l-12.292-0.063c-0.097,1.16,0.111,3.746-0.14,5.008
		c-0.229,1.154-0.389,1.194-1.002,1.535c-0.346,0.189-0.93,0.454-1.42,0.666l0,0"/>
	<line fill="none" stroke="#49505A" stroke-width="1.7239" x1="45.219" y1="80.252" x2="65.713" y2="80.252"/>
	<rect x="44.593" y="39.692" fill="#45A0A3" width="8.16" height="7.983"/>
	<rect x="57.352" y="39.692" fill="#E05C26" width="8.16" height="7.983"/>
	<rect x="44.593" y="51.303" fill="#EFC96A" width="8.161" height="7.983"/>
	<rect x="57.352" y="51.303" fill="#49505A" width="8.16" height="7.983"/>
	<line fill="none" stroke="#49505A" stroke-width="1.7239" x1="52.215" y1="47.144" x2="49.431" y2="48.75"/>
	<line fill="none" stroke="#49505A" stroke-width="1.7239" x1="65.268" y1="54.061" x2="69.846" y2="58.637"/>
	<polygon fill="#FFFFFF" stroke="#49505A" stroke-width="1.7239" points="56.895,45.689 70.356,51.383 64.953,53.747 62.591,59.15 	
		"/>
	<line fill="none" stroke="#49505A" stroke-width="1.7239" x1="55.053" y1="41.573" x2="55.053" y2="38.36"/>
	<line fill="none" stroke="#49505A" stroke-width="1.7239" x1="52.026" y1="43.54" x2="49.242" y2="41.932"/>
	<line fill="none" stroke="#49505A" stroke-width="1.7239" x1="55.43" y1="48.782" x2="55.43" y2="51.997"/>
	<line fill="none" stroke="#49505A" stroke-width="1.7239" x1="58.268" y1="43.212" x2="61.053" y2="41.604"/>
	<circle fill="none" stroke="#E7E7E7" stroke-width="2" stroke-miterlimit="10" cx="55.052" cy="54.061" r="48.871"/>
</g>
</svg>
